<?xml version="1.0" encoding="utf-8" standalone="no"?>
<!DOCTYPE svg PUBLIC "-//W3C//DTD SVG 1.1//EN"
  "http://www.w3.org/Graphics/SVG/1.1/DTD/svg11.dtd">
<svg xmlns:xlink="http://www.w3.org/1999/xlink" width="460.8pt" height="474.557812pt" viewBox="0 0 460.8 474.557812" xmlns="http://www.w3.org/2000/svg" version="1.1">
 <metadata>
  <rdf:RDF xmlns:dc="http://purl.org/dc/elements/1.1/" xmlns:cc="http://creativecommons.org/ns#" xmlns:rdf="http://www.w3.org/1999/02/22-rdf-syntax-ns#">
   <cc:Work>
    <dc:type rdf:resource="http://purl.org/dc/dcmitype/StillImage"/>
    <dc:date>2026-07-05T00:24:53.002467</dc:date>
    <dc:format>image/svg+xml</dc:format>
    <dc:creator>
     <cc:Agent>
      <dc:title>Matplotlib v3.9.4, https://matplotlib.org/</dc:title>
     </cc:Agent>
    </dc:creator>
   </cc:Work>
  </rdf:RDF>
 </metadata>
 <defs>
  <style type="text/css">*{stroke-linejoin: round; stroke-linecap: butt}</style>
 </defs>
 <g id="figure_1">
  <g id="patch_1">
   <path d="M 0 474.557812 
L 460.8 474.557812 
L 460.8 0 
L 0 0 
z
" style="fill: #ffffff"/>
  </g>
  <g id="axes_1">
   <g id="text_1">
    <g id="patch_2">
     <path d="M 204.391875 74.651178 
L 256.408125 74.651178 
Q 260.258125 74.651178 260.258125 70.801178 
L 260.258125 47.837647 
Q 260.258125 43.987647 256.408125 43.987647 
L 204.391875 43.987647 
Q 200.541875 43.987647 200.541875 47.837647 
L 200.541875 70.801178 
Q 200.541875 74.651178 204.391875 74.651178 
z
" style="fill: #f7f7f7; stroke: #333333; stroke-linejoin: miter"/>
    </g>
    <!-- Identified -->
    <g transform="translate(204.391875 56.195928) scale(0.11 -0.11)">
     <defs>
      <path id="DejaVuSans-49" d="M 628 4666 
L 1259 4666 
L 1259 0 
L 628 0 
L 628 4666 
z
" transform="scale(0.015625)"/>
      <path id="DejaVuSans-64" d="M 2906 2969 
L 2906 4863 
L 3481 4863 
L 3481 0 
L 2906 0 
L 2906 525 
Q 2725 213 2448 61 
Q 2172 -91 1784 -91 
Q 1150 -91 751 415 
Q 353 922 353 1747 
Q 353 2572 751 3078 
Q 1150 3584 1784 3584 
Q 2172 3584 2448 3432 
Q 2725 3281 2906 2969 
z
M 947 1747 
Q 947 1113 1208 752 
Q 1469 391 1925 391 
Q 2381 391 2643 752 
Q 2906 1113 2906 1747 
Q 2906 2381 2643 2742 
Q 2381 3103 1925 3103 
Q 1469 3103 1208 2742 
Q 947 2381 947 1747 
z
" transform="scale(0.015625)"/>
      <path id="DejaVuSans-65" d="M 3597 1894 
L 3597 1613 
L 953 1613 
Q 991 1019 1311 708 
Q 1631 397 2203 397 
Q 2534 397 2845 478 
Q 3156 559 3463 722 
L 3463 178 
Q 3153 47 2828 -22 
Q 2503 -91 2169 -91 
Q 1331 -91 842 396 
Q 353 884 353 1716 
Q 353 2575 817 3079 
Q 1281 3584 2069 3584 
Q 2775 3584 3186 3129 
Q 3597 2675 3597 1894 
z
M 3022 2063 
Q 3016 2534 2758 2815 
Q 2500 3097 2075 3097 
Q 1594 3097 1305 2825 
Q 1016 2553 972 2059 
L 3022 2063 
z
" transform="scale(0.015625)"/>
      <path id="DejaVuSans-6e" d="M 3513 2113 
L 3513 0 
L 2938 0 
L 2938 2094 
Q 2938 2591 2744 2837 
Q 2550 3084 2163 3084 
Q 1697 3084 1428 2787 
Q 1159 2491 1159 1978 
L 1159 0 
L 581 0 
L 581 3500 
L 1159 3500 
L 1159 2956 
Q 1366 3272 1645 3428 
Q 1925 3584 2291 3584 
Q 2894 3584 3203 3211 
Q 3513 2838 3513 2113 
z
" transform="scale(0.015625)"/>
      <path id="DejaVuSans-74" d="M 1172 4494 
L 1172 3500 
L 2356 3500 
L 2356 3053 
L 1172 3053 
L 1172 1153 
Q 1172 725 1289 603 
Q 1406 481 1766 481 
L 2356 481 
L 2356 0 
L 1766 0 
Q 1100 0 847 248 
Q 594 497 594 1153 
L 594 3053 
L 172 3053 
L 172 3500 
L 594 3500 
L 594 4494 
L 1172 4494 
z
" transform="scale(0.015625)"/>
      <path id="DejaVuSans-69" d="M 603 3500 
L 1178 3500 
L 1178 0 
L 603 0 
L 603 3500 
z
M 603 4863 
L 1178 4863 
L 1178 4134 
L 603 4134 
L 603 4863 
z
" transform="scale(0.015625)"/>
      <path id="DejaVuSans-66" d="M 2375 4863 
L 2375 4384 
L 1825 4384 
Q 1516 4384 1395 4259 
Q 1275 4134 1275 3809 
L 1275 3500 
L 2222 3500 
L 2222 3053 
L 1275 3053 
L 1275 0 
L 697 0 
L 697 3053 
L 147 3053 
L 147 3500 
L 697 3500 
L 697 3744 
Q 697 4328 969 4595 
Q 1241 4863 1831 4863 
L 2375 4863 
z
" transform="scale(0.015625)"/>
     </defs>
     <use xlink:href="#DejaVuSans-49"/>
     <use xlink:href="#DejaVuSans-64" x="29.492188"/>
     <use xlink:href="#DejaVuSans-65" x="92.96875"/>
     <use xlink:href="#DejaVuSans-6e" x="154.492188"/>
     <use xlink:href="#DejaVuSans-74" x="217.871094"/>
     <use xlink:href="#DejaVuSans-69" x="257.080078"/>
     <use xlink:href="#DejaVuSans-66" x="284.863281"/>
     <use xlink:href="#DejaVuSans-69" x="320.068359"/>
     <use xlink:href="#DejaVuSans-65" x="347.851562"/>
     <use xlink:href="#DejaVuSans-64" x="409.375"/>
    </g>
    <!--  n = 0 -->
    <g transform="translate(213.562266 68.513522) scale(0.11 -0.11)">
     <defs>
      <path id="DejaVuSans-20" transform="scale(0.015625)"/>
      <path id="DejaVuSans-3d" d="M 678 2906 
L 4684 2906 
L 4684 2381 
L 678 2381 
L 678 2906 
z
M 678 1631 
L 4684 1631 
L 4684 1100 
L 678 1100 
L 678 1631 
z
" transform="scale(0.015625)"/>
      <path id="DejaVuSans-30" d="M 2034 4250 
Q 1547 4250 1301 3770 
Q 1056 3291 1056 2328 
Q 1056 1369 1301 889 
Q 1547 409 2034 409 
Q 2525 409 2770 889 
Q 3016 1369 3016 2328 
Q 3016 3291 2770 3770 
Q 2525 4250 2034 4250 
z
M 2034 4750 
Q 2819 4750 3233 4129 
Q 3647 3509 3647 2328 
Q 3647 1150 3233 529 
Q 2819 -91 2034 -91 
Q 1250 -91 836 529 
Q 422 1150 422 2328 
Q 422 3509 836 4129 
Q 1250 4750 2034 4750 
z
" transform="scale(0.015625)"/>
     </defs>
     <use xlink:href="#DejaVuSans-20"/>
     <use xlink:href="#DejaVuSans-6e" x="31.787109"/>
     <use xlink:href="#DejaVuSans-20" x="95.166016"/>
     <use xlink:href="#DejaVuSans-3d" x="126.953125"/>
     <use xlink:href="#DejaVuSans-20" x="210.742188"/>
     <use xlink:href="#DejaVuSans-30" x="242.529297"/>
    </g>
   </g>
   <g id="patch_3">
    <path d="M 230.4 85.710802 
Q 230.4 90.363955 230.4 93.899074 
" style="fill: none; stroke: #333333; stroke-linecap: round"/>
    <path d="M 232.4 89.899074 
L 230.4 93.899074 
L 228.4 89.899074 
" style="fill: none; stroke: #333333; stroke-linecap: round"/>
   </g>
   <g id="text_2">
    <g id="patch_4">
     <path d="M 193.829297 136.743978 
L 266.970703 136.743978 
Q 270.820703 136.743978 270.820703 132.893978 
L 270.820703 109.930447 
Q 270.820703 106.080447 266.970703 106.080447 
L 193.829297 106.080447 
Q 189.979297 106.080447 189.979297 109.930447 
L 189.979297 132.893978 
Q 189.979297 136.743978 193.829297 136.743978 
z
" style="fill: #f7f7f7; stroke: #333333; stroke-linejoin: miter"/>
    </g>
    <!-- Deduplicated -->
    <g transform="translate(193.829297 118.288728) scale(0.11 -0.11)">
     <defs>
      <path id="DejaVuSans-44" d="M 1259 4147 
L 1259 519 
L 2022 519 
Q 2988 519 3436 956 
Q 3884 1394 3884 2338 
Q 3884 3275 3436 3711 
Q 2988 4147 2022 4147 
L 1259 4147 
z
M 628 4666 
L 1925 4666 
Q 3281 4666 3915 4102 
Q 4550 3538 4550 2338 
Q 4550 1131 3912 565 
Q 3275 0 1925 0 
L 628 0 
L 628 4666 
z
" transform="scale(0.015625)"/>
      <path id="DejaVuSans-75" d="M 544 1381 
L 544 3500 
L 1119 3500 
L 1119 1403 
Q 1119 906 1312 657 
Q 1506 409 1894 409 
Q 2359 409 2629 706 
Q 2900 1003 2900 1516 
L 2900 3500 
L 3475 3500 
L 3475 0 
L 2900 0 
L 2900 538 
Q 2691 219 2414 64 
Q 2138 -91 1772 -91 
Q 1169 -91 856 284 
Q 544 659 544 1381 
z
M 1991 3584 
L 1991 3584 
z
" transform="scale(0.015625)"/>
      <path id="DejaVuSans-70" d="M 1159 525 
L 1159 -1331 
L 581 -1331 
L 581 3500 
L 1159 3500 
L 1159 2969 
Q 1341 3281 1617 3432 
Q 1894 3584 2278 3584 
Q 2916 3584 3314 3078 
Q 3713 2572 3713 1747 
Q 3713 922 3314 415 
Q 2916 -91 2278 -91 
Q 1894 -91 1617 61 
Q 1341 213 1159 525 
z
M 3116 1747 
Q 3116 2381 2855 2742 
Q 2594 3103 2138 3103 
Q 1681 3103 1420 2742 
Q 1159 2381 1159 1747 
Q 1159 1113 1420 752 
Q 1681 391 2138 391 
Q 2594 391 2855 752 
Q 3116 1113 3116 1747 
z
" transform="scale(0.015625)"/>
      <path id="DejaVuSans-6c" d="M 603 4863 
L 1178 4863 
L 1178 0 
L 603 0 
L 603 4863 
z
" transform="scale(0.015625)"/>
      <path id="DejaVuSans-63" d="M 3122 3366 
L 3122 2828 
Q 2878 2963 2633 3030 
Q 2388 3097 2138 3097 
Q 1578 3097 1268 2742 
Q 959 2388 959 1747 
Q 959 1106 1268 751 
Q 1578 397 2138 397 
Q 2388 397 2633 464 
Q 2878 531 3122 666 
L 3122 134 
Q 2881 22 2623 -34 
Q 2366 -91 2075 -91 
Q 1284 -91 818 406 
Q 353 903 353 1747 
Q 353 2603 823 3093 
Q 1294 3584 2113 3584 
Q 2378 3584 2631 3529 
Q 2884 3475 3122 3366 
z
" transform="scale(0.015625)"/>
      <path id="DejaVuSans-61" d="M 2194 1759 
Q 1497 1759 1228 1600 
Q 959 1441 959 1056 
Q 959 750 1161 570 
Q 1363 391 1709 391 
Q 2188 391 2477 730 
Q 2766 1069 2766 1631 
L 2766 1759 
L 2194 1759 
z
M 3341 1997 
L 3341 0 
L 2766 0 
L 2766 531 
Q 2569 213 2275 61 
Q 1981 -91 1556 -91 
Q 1019 -91 701 211 
Q 384 513 384 1019 
Q 384 1609 779 1909 
Q 1175 2209 1959 2209 
L 2766 2209 
L 2766 2266 
Q 2766 2663 2505 2880 
Q 2244 3097 1772 3097 
Q 1472 3097 1187 3025 
Q 903 2953 641 2809 
L 641 3341 
Q 956 3463 1253 3523 
Q 1550 3584 1831 3584 
Q 2591 3584 2966 3190 
Q 3341 2797 3341 1997 
z
" transform="scale(0.015625)"/>
     </defs>
     <use xlink:href="#DejaVuSans-44"/>
     <use xlink:href="#DejaVuSans-65" x="77.001953"/>
     <use xlink:href="#DejaVuSans-64" x="138.525391"/>
     <use xlink:href="#DejaVuSans-75" x="202.001953"/>
     <use xlink:href="#DejaVuSans-70" x="265.380859"/>
     <use xlink:href="#DejaVuSans-6c" x="328.857422"/>
     <use xlink:href="#DejaVuSans-69" x="356.640625"/>
     <use xlink:href="#DejaVuSans-63" x="384.423828"/>
     <use xlink:href="#DejaVuSans-61" x="439.404297"/>
     <use xlink:href="#DejaVuSans-74" x="500.683594"/>
     <use xlink:href="#DejaVuSans-65" x="539.892578"/>
     <use xlink:href="#DejaVuSans-64" x="601.416016"/>
    </g>
    <!--  n = 0 -->
    <g transform="translate(213.562266 130.606322) scale(0.11 -0.11)">
     <use xlink:href="#DejaVuSans-20"/>
     <use xlink:href="#DejaVuSans-6e" x="31.787109"/>
     <use xlink:href="#DejaVuSans-20" x="95.166016"/>
     <use xlink:href="#DejaVuSans-3d" x="126.953125"/>
     <use xlink:href="#DejaVuSans-20" x="210.742188"/>
     <use xlink:href="#DejaVuSans-30" x="242.529297"/>
    </g>
   </g>
   <g id="patch_5">
    <path d="M 230.4 147.803602 
Q 230.4 152.456755 230.4 155.991874 
" style="fill: none; stroke: #333333; stroke-linecap: round"/>
    <path d="M 232.4 151.991874 
L 230.4 155.991874 
L 228.4 151.991874 
" style="fill: none; stroke: #333333; stroke-linecap: round"/>
   </g>
   <g id="text_3">
    <g id="patch_6">
     <path d="M 204.617031 198.836778 
L 256.182969 198.836778 
Q 260.032969 198.836778 260.032969 194.986778 
L 260.032969 172.023247 
Q 260.032969 168.173247 256.182969 168.173247 
L 204.617031 168.173247 
Q 200.767031 168.173247 200.767031 172.023247 
L 200.767031 194.986778 
Q 200.767031 198.836778 204.617031 198.836778 
z
" style="fill: #f7f7f7; stroke: #333333; stroke-linejoin: miter"/>
    </g>
    <!-- Screened -->
    <g transform="translate(204.617031 180.381528) scale(0.11 -0.11)">
     <defs>
      <path id="DejaVuSans-53" d="M 3425 4513 
L 3425 3897 
Q 3066 4069 2747 4153 
Q 2428 4238 2131 4238 
Q 1616 4238 1336 4038 
Q 1056 3838 1056 3469 
Q 1056 3159 1242 3001 
Q 1428 2844 1947 2747 
L 2328 2669 
Q 3034 2534 3370 2195 
Q 3706 1856 3706 1288 
Q 3706 609 3251 259 
Q 2797 -91 1919 -91 
Q 1588 -91 1214 -16 
Q 841 59 441 206 
L 441 856 
Q 825 641 1194 531 
Q 1563 422 1919 422 
Q 2459 422 2753 634 
Q 3047 847 3047 1241 
Q 3047 1584 2836 1778 
Q 2625 1972 2144 2069 
L 1759 2144 
Q 1053 2284 737 2584 
Q 422 2884 422 3419 
Q 422 4038 858 4394 
Q 1294 4750 2059 4750 
Q 2388 4750 2728 4690 
Q 3069 4631 3425 4513 
z
" transform="scale(0.015625)"/>
      <path id="DejaVuSans-72" d="M 2631 2963 
Q 2534 3019 2420 3045 
Q 2306 3072 2169 3072 
Q 1681 3072 1420 2755 
Q 1159 2438 1159 1844 
L 1159 0 
L 581 0 
L 581 3500 
L 1159 3500 
L 1159 2956 
Q 1341 3275 1631 3429 
Q 1922 3584 2338 3584 
Q 2397 3584 2469 3576 
Q 2541 3569 2628 3553 
L 2631 2963 
z
" transform="scale(0.015625)"/>
     </defs>
     <use xlink:href="#DejaVuSans-53"/>
     <use xlink:href="#DejaVuSans-63" x="63.476562"/>
     <use xlink:href="#DejaVuSans-72" x="118.457031"/>
     <use xlink:href="#DejaVuSans-65" x="157.320312"/>
     <use xlink:href="#DejaVuSans-65" x="218.84375"/>
     <use xlink:href="#DejaVuSans-6e" x="280.367188"/>
     <use xlink:href="#DejaVuSans-65" x="343.746094"/>
     <use xlink:href="#DejaVuSans-64" x="405.269531"/>
    </g>
    <!--  n = 0 -->
    <g transform="translate(213.562266 192.699122) scale(0.11 -0.11)">
     <use xlink:href="#DejaVuSans-20"/>
     <use xlink:href="#DejaVuSans-6e" x="31.787109"/>
     <use xlink:href="#DejaVuSans-20" x="95.166016"/>
     <use xlink:href="#DejaVuSans-3d" x="126.953125"/>
     <use xlink:href="#DejaVuSans-20" x="210.742188"/>
     <use xlink:href="#DejaVuSans-30" x="242.529297"/>
    </g>
   </g>
   <g id="patch_7">
    <path d="M 230.4 209.896402 
Q 230.4 214.549555 230.4 218.084674 
" style="fill: none; stroke: #333333; stroke-linecap: round"/>
    <path d="M 232.4 214.084674 
L 230.4 218.084674 
L 228.4 214.084674 
" style="fill: none; stroke: #333333; stroke-linecap: round"/>
   </g>
   <g id="text_4">
    <g id="patch_8">
     <path d="M 205.360391 260.929578 
L 255.439609 260.929578 
Q 259.289609 260.929578 259.289609 257.079578 
L 259.289609 234.116047 
Q 259.289609 230.266047 255.439609 230.266047 
L 205.360391 230.266047 
Q 201.510391 230.266047 201.510391 234.116047 
L 201.510391 257.079578 
Q 201.510391 260.929578 205.360391 260.929578 
z
" style="fill: #f7f7f7; stroke: #333333; stroke-linejoin: miter"/>
    </g>
    <!-- Excluded -->
    <g transform="translate(205.360391 242.474328) scale(0.11 -0.11)">
     <defs>
      <path id="DejaVuSans-45" d="M 628 4666 
L 3578 4666 
L 3578 4134 
L 1259 4134 
L 1259 2753 
L 3481 2753 
L 3481 2222 
L 1259 2222 
L 1259 531 
L 3634 531 
L 3634 0 
L 628 0 
L 628 4666 
z
" transform="scale(0.015625)"/>
      <path id="DejaVuSans-78" d="M 3513 3500 
L 2247 1797 
L 3578 0 
L 2900 0 
L 1881 1375 
L 863 0 
L 184 0 
L 1544 1831 
L 300 3500 
L 978 3500 
L 1906 2253 
L 2834 3500 
L 3513 3500 
z
" transform="scale(0.015625)"/>
     </defs>
     <use xlink:href="#DejaVuSans-45"/>
     <use xlink:href="#DejaVuSans-78" x="63.183594"/>
     <use xlink:href="#DejaVuSans-63" x="120.613281"/>
     <use xlink:href="#DejaVuSans-6c" x="175.59375"/>
     <use xlink:href="#DejaVuSans-75" x="203.376953"/>
     <use xlink:href="#DejaVuSans-64" x="266.755859"/>
     <use xlink:href="#DejaVuSans-65" x="330.232422"/>
     <use xlink:href="#DejaVuSans-64" x="391.755859"/>
    </g>
    <!--  n = 0 -->
    <g transform="translate(213.562266 254.791922) scale(0.11 -0.11)">
     <use xlink:href="#DejaVuSans-20"/>
     <use xlink:href="#DejaVuSans-6e" x="31.787109"/>
     <use xlink:href="#DejaVuSans-20" x="95.166016"/>
     <use xlink:href="#DejaVuSans-3d" x="126.953125"/>
     <use xlink:href="#DejaVuSans-20" x="210.742188"/>
     <use xlink:href="#DejaVuSans-30" x="242.529297"/>
    </g>
   </g>
   <g id="patch_9">
    <path d="M 230.4 271.989202 
Q 230.4 276.642355 230.4 280.177474 
" style="fill: none; stroke: #333333; stroke-linecap: round"/>
    <path d="M 232.4 276.177474 
L 230.4 280.177474 
L 228.4 276.177474 
" style="fill: none; stroke: #333333; stroke-linecap: round"/>
   </g>
   <g id="text_5">
    <g id="patch_10">
     <path d="M 181.160391 323.022378 
L 279.639609 323.022378 
Q 283.489609 323.022378 283.489609 319.172378 
L 283.489609 296.208847 
Q 283.489609 292.358847 279.639609 292.358847 
L 181.160391 292.358847 
Q 177.310391 292.358847 177.310391 296.208847 
L 177.310391 319.172378 
Q 177.310391 323.022378 181.160391 323.022378 
z
" style="fill: #f7f7f7; stroke: #333333; stroke-linejoin: miter"/>
    </g>
    <!-- Full-Text Assessed -->
    <g transform="translate(181.160391 304.567128) scale(0.11 -0.11)">
     <defs>
      <path id="DejaVuSans-46" d="M 628 4666 
L 3309 4666 
L 3309 4134 
L 1259 4134 
L 1259 2759 
L 3109 2759 
L 3109 2228 
L 1259 2228 
L 1259 0 
L 628 0 
L 628 4666 
z
" transform="scale(0.015625)"/>
      <path id="DejaVuSans-2d" d="M 313 2009 
L 1997 2009 
L 1997 1497 
L 313 1497 
L 313 2009 
z
" transform="scale(0.015625)"/>
      <path id="DejaVuSans-54" d="M -19 4666 
L 3928 4666 
L 3928 4134 
L 2272 4134 
L 2272 0 
L 1638 0 
L 1638 4134 
L -19 4134 
L -19 4666 
z
" transform="scale(0.015625)"/>
      <path id="DejaVuSans-41" d="M 2188 4044 
L 1331 1722 
L 3047 1722 
L 2188 4044 
z
M 1831 4666 
L 2547 4666 
L 4325 0 
L 3669 0 
L 3244 1197 
L 1141 1197 
L 716 0 
L 50 0 
L 1831 4666 
z
" transform="scale(0.015625)"/>
      <path id="DejaVuSans-73" d="M 2834 3397 
L 2834 2853 
Q 2591 2978 2328 3040 
Q 2066 3103 1784 3103 
Q 1356 3103 1142 2972 
Q 928 2841 928 2578 
Q 928 2378 1081 2264 
Q 1234 2150 1697 2047 
L 1894 2003 
Q 2506 1872 2764 1633 
Q 3022 1394 3022 966 
Q 3022 478 2636 193 
Q 2250 -91 1575 -91 
Q 1294 -91 989 -36 
Q 684 19 347 128 
L 347 722 
Q 666 556 975 473 
Q 1284 391 1588 391 
Q 1994 391 2212 530 
Q 2431 669 2431 922 
Q 2431 1156 2273 1281 
Q 2116 1406 1581 1522 
L 1381 1569 
Q 847 1681 609 1914 
Q 372 2147 372 2553 
Q 372 3047 722 3315 
Q 1072 3584 1716 3584 
Q 2034 3584 2315 3537 
Q 2597 3491 2834 3397 
z
" transform="scale(0.015625)"/>
     </defs>
     <use xlink:href="#DejaVuSans-46"/>
     <use xlink:href="#DejaVuSans-75" x="52.019531"/>
     <use xlink:href="#DejaVuSans-6c" x="115.398438"/>
     <use xlink:href="#DejaVuSans-6c" x="143.181641"/>
     <use xlink:href="#DejaVuSans-2d" x="170.964844"/>
     <use xlink:href="#DejaVuSans-54" x="197.923828"/>
     <use xlink:href="#DejaVuSans-65" x="242.007812"/>
     <use xlink:href="#DejaVuSans-78" x="301.78125"/>
     <use xlink:href="#DejaVuSans-74" x="360.960938"/>
     <use xlink:href="#DejaVuSans-20" x="400.169922"/>
     <use xlink:href="#DejaVuSans-41" x="431.957031"/>
     <use xlink:href="#DejaVuSans-73" x="500.365234"/>
     <use xlink:href="#DejaVuSans-73" x="552.464844"/>
     <use xlink:href="#DejaVuSans-65" x="604.564453"/>
     <use xlink:href="#DejaVuSans-73" x="666.087891"/>
     <use xlink:href="#DejaVuSans-73" x="718.1875"/>
     <use xlink:href="#DejaVuSans-65" x="770.287109"/>
     <use xlink:href="#DejaVuSans-64" x="831.810547"/>
    </g>
    <!--  n = 0 -->
    <g transform="translate(213.562266 316.884722) scale(0.11 -0.11)">
     <use xlink:href="#DejaVuSans-20"/>
     <use xlink:href="#DejaVuSans-6e" x="31.787109"/>
     <use xlink:href="#DejaVuSans-20" x="95.166016"/>
     <use xlink:href="#DejaVuSans-3d" x="126.953125"/>
     <use xlink:href="#DejaVuSans-20" x="210.742188"/>
     <use xlink:href="#DejaVuSans-30" x="242.529297"/>
    </g>
   </g>
   <g id="patch_11">
    <path d="M 230.4 334.082002 
Q 230.4 338.735155 230.4 342.270274 
" style="fill: none; stroke: #333333; stroke-linecap: round"/>
    <path d="M 232.4 338.270274 
L 230.4 342.270274 
L 228.4 338.270274 
" style="fill: none; stroke: #333333; stroke-linecap: round"/>
   </g>
   <g id="text_6">
    <g id="patch_12">
     <path d="M 206.886641 385.115178 
L 253.913359 385.115178 
Q 257.763359 385.115178 257.763359 381.265178 
L 257.763359 358.301647 
Q 257.763359 354.451647 253.913359 354.451647 
L 206.886641 354.451647 
Q 203.036641 354.451647 203.036641 358.301647 
L 203.036641 381.265178 
Q 203.036641 385.115178 206.886641 385.115178 
z
" style="fill: #f7f7f7; stroke: #333333; stroke-linejoin: miter"/>
    </g>
    <!-- Included -->
    <g transform="translate(206.886641 366.659928) scale(0.11 -0.11)">
     <use xlink:href="#DejaVuSans-49"/>
     <use xlink:href="#DejaVuSans-6e" x="29.492188"/>
     <use xlink:href="#DejaVuSans-63" x="92.871094"/>
     <use xlink:href="#DejaVuSans-6c" x="147.851562"/>
     <use xlink:href="#DejaVuSans-75" x="175.634766"/>
     <use xlink:href="#DejaVuSans-64" x="239.013672"/>
     <use xlink:href="#DejaVuSans-65" x="302.490234"/>
     <use xlink:href="#DejaVuSans-64" x="364.013672"/>
    </g>
    <!--  n = 0 -->
    <g transform="translate(213.562266 378.977522) scale(0.11 -0.11)">
     <use xlink:href="#DejaVuSans-20"/>
     <use xlink:href="#DejaVuSans-6e" x="31.787109"/>
     <use xlink:href="#DejaVuSans-20" x="95.166016"/>
     <use xlink:href="#DejaVuSans-3d" x="126.953125"/>
     <use xlink:href="#DejaVuSans-20" x="210.742188"/>
     <use xlink:href="#DejaVuSans-30" x="242.529297"/>
    </g>
   </g>
   <g id="patch_13">
    <path d="M 230.4 396.174802 
Q 230.4 400.827955 230.4 404.363074 
" style="fill: none; stroke: #333333; stroke-linecap: round"/>
    <path d="M 232.4 400.363074 
L 230.4 404.363074 
L 228.4 400.363074 
" style="fill: none; stroke: #333333; stroke-linecap: round"/>
   </g>
   <g id="text_7">
    <g id="patch_14">
     <path d="M 203.679453 447.207978 
L 257.120547 447.207978 
Q 260.970547 447.207978 260.970547 443.357978 
L 260.970547 420.394447 
Q 260.970547 416.544447 257.120547 416.544447 
L 203.679453 416.544447 
Q 199.829453 416.544447 199.829453 420.394447 
L 199.829453 443.357978 
Q 199.829453 447.207978 203.679453 447.207978 
z
" style="fill: #f7f7f7; stroke: #333333; stroke-linejoin: miter"/>
    </g>
    <!-- Uncertain -->
    <g transform="translate(203.679453 428.752728) scale(0.11 -0.11)">
     <defs>
      <path id="DejaVuSans-55" d="M 556 4666 
L 1191 4666 
L 1191 1831 
Q 1191 1081 1462 751 
Q 1734 422 2344 422 
Q 2950 422 3222 751 
Q 3494 1081 3494 1831 
L 3494 4666 
L 4128 4666 
L 4128 1753 
Q 4128 841 3676 375 
Q 3225 -91 2344 -91 
Q 1459 -91 1007 375 
Q 556 841 556 1753 
L 556 4666 
z
" transform="scale(0.015625)"/>
     </defs>
     <use xlink:href="#DejaVuSans-55"/>
     <use xlink:href="#DejaVuSans-6e" x="73.193359"/>
     <use xlink:href="#DejaVuSans-63" x="136.572266"/>
     <use xlink:href="#DejaVuSans-65" x="191.552734"/>
     <use xlink:href="#DejaVuSans-72" x="253.076172"/>
     <use xlink:href="#DejaVuSans-74" x="294.189453"/>
     <use xlink:href="#DejaVuSans-61" x="333.398438"/>
     <use xlink:href="#DejaVuSans-69" x="394.677734"/>
     <use xlink:href="#DejaVuSans-6e" x="422.460938"/>
    </g>
    <!--  n = 0 -->
    <g transform="translate(213.562266 441.070322) scale(0.11 -0.11)">
     <use xlink:href="#DejaVuSans-20"/>
     <use xlink:href="#DejaVuSans-6e" x="31.787109"/>
     <use xlink:href="#DejaVuSans-20" x="95.166016"/>
     <use xlink:href="#DejaVuSans-3d" x="126.953125"/>
     <use xlink:href="#DejaVuSans-20" x="210.742188"/>
     <use xlink:href="#DejaVuSans-30" x="242.529297"/>
    </g>
   </g>
   <g id="text_8">
    <!-- Figure 1. PRISMA flow diagram -->
    <g transform="translate(107.862812 17.837812) scale(0.14 -0.14)">
     <defs>
      <path id="DejaVuSans-Bold-46" d="M 588 4666 
L 3834 4666 
L 3834 3756 
L 1791 3756 
L 1791 2888 
L 3713 2888 
L 3713 1978 
L 1791 1978 
L 1791 0 
L 588 0 
L 588 4666 
z
" transform="scale(0.015625)"/>
      <path id="DejaVuSans-Bold-69" d="M 538 3500 
L 1656 3500 
L 1656 0 
L 538 0 
L 538 3500 
z
M 538 4863 
L 1656 4863 
L 1656 3950 
L 538 3950 
L 538 4863 
z
" transform="scale(0.015625)"/>
      <path id="DejaVuSans-Bold-67" d="M 2919 594 
Q 2688 288 2409 144 
Q 2131 0 1766 0 
Q 1125 0 706 504 
Q 288 1009 288 1791 
Q 288 2575 706 3076 
Q 1125 3578 1766 3578 
Q 2131 3578 2409 3434 
Q 2688 3291 2919 2981 
L 2919 3500 
L 4044 3500 
L 4044 353 
Q 4044 -491 3511 -936 
Q 2978 -1381 1966 -1381 
Q 1638 -1381 1331 -1331 
Q 1025 -1281 716 -1178 
L 716 -306 
Q 1009 -475 1290 -558 
Q 1572 -641 1856 -641 
Q 2406 -641 2662 -400 
Q 2919 -159 2919 353 
L 2919 594 
z
M 2181 2772 
Q 1834 2772 1640 2515 
Q 1447 2259 1447 1791 
Q 1447 1309 1634 1061 
Q 1822 813 2181 813 
Q 2531 813 2725 1069 
Q 2919 1325 2919 1791 
Q 2919 2259 2725 2515 
Q 2531 2772 2181 2772 
z
" transform="scale(0.015625)"/>
      <path id="DejaVuSans-Bold-75" d="M 500 1363 
L 500 3500 
L 1625 3500 
L 1625 3150 
Q 1625 2866 1622 2436 
Q 1619 2006 1619 1863 
Q 1619 1441 1641 1255 
Q 1663 1069 1716 984 
Q 1784 875 1895 815 
Q 2006 756 2150 756 
Q 2500 756 2700 1025 
Q 2900 1294 2900 1772 
L 2900 3500 
L 4019 3500 
L 4019 0 
L 2900 0 
L 2900 506 
Q 2647 200 2364 54 
Q 2081 -91 1741 -91 
Q 1134 -91 817 281 
Q 500 653 500 1363 
z
" transform="scale(0.015625)"/>
      <path id="DejaVuSans-Bold-72" d="M 3138 2547 
Q 2991 2616 2845 2648 
Q 2700 2681 2553 2681 
Q 2122 2681 1889 2404 
Q 1656 2128 1656 1613 
L 1656 0 
L 538 0 
L 538 3500 
L 1656 3500 
L 1656 2925 
Q 1872 3269 2151 3426 
Q 2431 3584 2822 3584 
Q 2878 3584 2943 3579 
Q 3009 3575 3134 3559 
L 3138 2547 
z
" transform="scale(0.015625)"/>
      <path id="DejaVuSans-Bold-65" d="M 4031 1759 
L 4031 1441 
L 1416 1441 
Q 1456 1047 1700 850 
Q 1944 653 2381 653 
Q 2734 653 3104 758 
Q 3475 863 3866 1075 
L 3866 213 
Q 3469 63 3072 -14 
Q 2675 -91 2278 -91 
Q 1328 -91 801 392 
Q 275 875 275 1747 
Q 275 2603 792 3093 
Q 1309 3584 2216 3584 
Q 3041 3584 3536 3087 
Q 4031 2591 4031 1759 
z
M 2881 2131 
Q 2881 2450 2695 2645 
Q 2509 2841 2209 2841 
Q 1884 2841 1681 2658 
Q 1478 2475 1428 2131 
L 2881 2131 
z
" transform="scale(0.015625)"/>
      <path id="DejaVuSans-Bold-20" transform="scale(0.015625)"/>
      <path id="DejaVuSans-Bold-31" d="M 750 831 
L 1813 831 
L 1813 3847 
L 722 3622 
L 722 4441 
L 1806 4666 
L 2950 4666 
L 2950 831 
L 4013 831 
L 4013 0 
L 750 0 
L 750 831 
z
" transform="scale(0.015625)"/>
      <path id="DejaVuSans-Bold-2e" d="M 653 1209 
L 1778 1209 
L 1778 0 
L 653 0 
L 653 1209 
z
" transform="scale(0.015625)"/>
      <path id="DejaVuSans-Bold-50" d="M 588 4666 
L 2584 4666 
Q 3475 4666 3951 4270 
Q 4428 3875 4428 3144 
Q 4428 2409 3951 2014 
Q 3475 1619 2584 1619 
L 1791 1619 
L 1791 0 
L 588 0 
L 588 4666 
z
M 1791 3794 
L 1791 2491 
L 2456 2491 
Q 2806 2491 2997 2661 
Q 3188 2831 3188 3144 
Q 3188 3456 2997 3625 
Q 2806 3794 2456 3794 
L 1791 3794 
z
" transform="scale(0.015625)"/>
      <path id="DejaVuSans-Bold-52" d="M 2297 2597 
Q 2675 2597 2839 2737 
Q 3003 2878 3003 3200 
Q 3003 3519 2839 3656 
Q 2675 3794 2297 3794 
L 1791 3794 
L 1791 2597 
L 2297 2597 
z
M 1791 1766 
L 1791 0 
L 588 0 
L 588 4666 
L 2425 4666 
Q 3347 4666 3776 4356 
Q 4206 4047 4206 3378 
Q 4206 2916 3982 2619 
Q 3759 2322 3309 2181 
Q 3556 2125 3751 1926 
Q 3947 1728 4147 1325 
L 4800 0 
L 3519 0 
L 2950 1159 
Q 2778 1509 2601 1637 
Q 2425 1766 2131 1766 
L 1791 1766 
z
" transform="scale(0.015625)"/>
      <path id="DejaVuSans-Bold-49" d="M 588 4666 
L 1791 4666 
L 1791 0 
L 588 0 
L 588 4666 
z
" transform="scale(0.015625)"/>
      <path id="DejaVuSans-Bold-53" d="M 3834 4519 
L 3834 3531 
Q 3450 3703 3084 3790 
Q 2719 3878 2394 3878 
Q 1963 3878 1756 3759 
Q 1550 3641 1550 3391 
Q 1550 3203 1689 3098 
Q 1828 2994 2194 2919 
L 2706 2816 
Q 3484 2659 3812 2340 
Q 4141 2022 4141 1434 
Q 4141 663 3683 286 
Q 3225 -91 2284 -91 
Q 1841 -91 1394 -6 
Q 947 78 500 244 
L 500 1259 
Q 947 1022 1364 901 
Q 1781 781 2169 781 
Q 2563 781 2772 912 
Q 2981 1044 2981 1288 
Q 2981 1506 2839 1625 
Q 2697 1744 2272 1838 
L 1806 1941 
Q 1106 2091 782 2419 
Q 459 2747 459 3303 
Q 459 4000 909 4375 
Q 1359 4750 2203 4750 
Q 2588 4750 2994 4692 
Q 3400 4634 3834 4519 
z
" transform="scale(0.015625)"/>
      <path id="DejaVuSans-Bold-4d" d="M 588 4666 
L 2119 4666 
L 3181 2169 
L 4250 4666 
L 5778 4666 
L 5778 0 
L 4641 0 
L 4641 3413 
L 3566 897 
L 2803 897 
L 1728 3413 
L 1728 0 
L 588 0 
L 588 4666 
z
" transform="scale(0.015625)"/>
      <path id="DejaVuSans-Bold-41" d="M 3419 850 
L 1538 850 
L 1241 0 
L 31 0 
L 1759 4666 
L 3194 4666 
L 4922 0 
L 3713 0 
L 3419 850 
z
M 1838 1716 
L 3116 1716 
L 2478 3572 
L 1838 1716 
z
" transform="scale(0.015625)"/>
      <path id="DejaVuSans-Bold-66" d="M 2841 4863 
L 2841 4128 
L 2222 4128 
Q 1984 4128 1890 4042 
Q 1797 3956 1797 3744 
L 1797 3500 
L 2753 3500 
L 2753 2700 
L 1797 2700 
L 1797 0 
L 678 0 
L 678 2700 
L 122 2700 
L 122 3500 
L 678 3500 
L 678 3744 
Q 678 4316 997 4589 
Q 1316 4863 1984 4863 
L 2841 4863 
z
" transform="scale(0.015625)"/>
      <path id="DejaVuSans-Bold-6c" d="M 538 4863 
L 1656 4863 
L 1656 0 
L 538 0 
L 538 4863 
z
" transform="scale(0.015625)"/>
      <path id="DejaVuSans-Bold-6f" d="M 2203 2784 
Q 1831 2784 1636 2517 
Q 1441 2250 1441 1747 
Q 1441 1244 1636 976 
Q 1831 709 2203 709 
Q 2569 709 2762 976 
Q 2956 1244 2956 1747 
Q 2956 2250 2762 2517 
Q 2569 2784 2203 2784 
z
M 2203 3584 
Q 3106 3584 3614 3096 
Q 4122 2609 4122 1747 
Q 4122 884 3614 396 
Q 3106 -91 2203 -91 
Q 1297 -91 786 396 
Q 275 884 275 1747 
Q 275 2609 786 3096 
Q 1297 3584 2203 3584 
z
" transform="scale(0.015625)"/>
      <path id="DejaVuSans-Bold-77" d="M 225 3500 
L 1313 3500 
L 1900 1088 
L 2491 3500 
L 3425 3500 
L 4013 1113 
L 4603 3500 
L 5691 3500 
L 4769 0 
L 3547 0 
L 2956 2406 
L 2369 0 
L 1147 0 
L 225 3500 
z
" transform="scale(0.015625)"/>
      <path id="DejaVuSans-Bold-64" d="M 2919 2988 
L 2919 4863 
L 4044 4863 
L 4044 0 
L 2919 0 
L 2919 506 
Q 2688 197 2409 53 
Q 2131 -91 1766 -91 
Q 1119 -91 703 423 
Q 288 938 288 1747 
Q 288 2556 703 3070 
Q 1119 3584 1766 3584 
Q 2128 3584 2408 3439 
Q 2688 3294 2919 2988 
z
M 2181 722 
Q 2541 722 2730 984 
Q 2919 1247 2919 1747 
Q 2919 2247 2730 2509 
Q 2541 2772 2181 2772 
Q 1825 2772 1636 2509 
Q 1447 2247 1447 1747 
Q 1447 1247 1636 984 
Q 1825 722 2181 722 
z
" transform="scale(0.015625)"/>
      <path id="DejaVuSans-Bold-61" d="M 2106 1575 
Q 1756 1575 1579 1456 
Q 1403 1338 1403 1106 
Q 1403 894 1545 773 
Q 1688 653 1941 653 
Q 2256 653 2472 879 
Q 2688 1106 2688 1447 
L 2688 1575 
L 2106 1575 
z
M 3816 1997 
L 3816 0 
L 2688 0 
L 2688 519 
Q 2463 200 2181 54 
Q 1900 -91 1497 -91 
Q 953 -91 614 226 
Q 275 544 275 1050 
Q 275 1666 698 1953 
Q 1122 2241 2028 2241 
L 2688 2241 
L 2688 2328 
Q 2688 2594 2478 2717 
Q 2269 2841 1825 2841 
Q 1466 2841 1156 2769 
Q 847 2697 581 2553 
L 581 3406 
Q 941 3494 1303 3539 
Q 1666 3584 2028 3584 
Q 2975 3584 3395 3211 
Q 3816 2838 3816 1997 
z
" transform="scale(0.015625)"/>
      <path id="DejaVuSans-Bold-6d" d="M 3781 2919 
Q 3994 3244 4286 3414 
Q 4578 3584 4928 3584 
Q 5531 3584 5847 3212 
Q 6163 2841 6163 2131 
L 6163 0 
L 5038 0 
L 5038 1825 
Q 5041 1866 5042 1909 
Q 5044 1953 5044 2034 
Q 5044 2406 4934 2573 
Q 4825 2741 4581 2741 
Q 4263 2741 4089 2478 
Q 3916 2216 3909 1719 
L 3909 0 
L 2784 0 
L 2784 1825 
Q 2784 2406 2684 2573 
Q 2584 2741 2328 2741 
Q 2006 2741 1831 2477 
Q 1656 2213 1656 1722 
L 1656 0 
L 531 0 
L 531 3500 
L 1656 3500 
L 1656 2988 
Q 1863 3284 2130 3434 
Q 2397 3584 2719 3584 
Q 3081 3584 3359 3409 
Q 3638 3234 3781 2919 
z
" transform="scale(0.015625)"/>
     </defs>
     <use xlink:href="#DejaVuSans-Bold-46"/>
     <use xlink:href="#DejaVuSans-Bold-69" x="68.310547"/>
     <use xlink:href="#DejaVuSans-Bold-67" x="102.587891"/>
     <use xlink:href="#DejaVuSans-Bold-75" x="174.169922"/>
     <use xlink:href="#DejaVuSans-Bold-72" x="245.361328"/>
     <use xlink:href="#DejaVuSans-Bold-65" x="294.677734"/>
     <use xlink:href="#DejaVuSans-Bold-20" x="362.5"/>
     <use xlink:href="#DejaVuSans-Bold-31" x="397.314453"/>
     <use xlink:href="#DejaVuSans-Bold-2e" x="466.894531"/>
     <use xlink:href="#DejaVuSans-Bold-20" x="504.882812"/>
     <use xlink:href="#DejaVuSans-Bold-50" x="539.697266"/>
     <use xlink:href="#DejaVuSans-Bold-52" x="612.988281"/>
     <use xlink:href="#DejaVuSans-Bold-49" x="689.990234"/>
     <use xlink:href="#DejaVuSans-Bold-53" x="727.197266"/>
     <use xlink:href="#DejaVuSans-Bold-4d" x="799.21875"/>
     <use xlink:href="#DejaVuSans-Bold-41" x="898.730469"/>
     <use xlink:href="#DejaVuSans-Bold-20" x="976.123047"/>
     <use xlink:href="#DejaVuSans-Bold-66" x="1010.9375"/>
     <use xlink:href="#DejaVuSans-Bold-6c" x="1054.443359"/>
     <use xlink:href="#DejaVuSans-Bold-6f" x="1088.720703"/>
     <use xlink:href="#DejaVuSans-Bold-77" x="1157.421875"/>
     <use xlink:href="#DejaVuSans-Bold-20" x="1249.804688"/>
     <use xlink:href="#DejaVuSans-Bold-64" x="1284.619141"/>
     <use xlink:href="#DejaVuSans-Bold-69" x="1356.201172"/>
     <use xlink:href="#DejaVuSans-Bold-61" x="1390.478516"/>
     <use xlink:href="#DejaVuSans-Bold-67" x="1457.958984"/>
     <use xlink:href="#DejaVuSans-Bold-72" x="1529.541016"/>
     <use xlink:href="#DejaVuSans-Bold-61" x="1578.857422"/>
     <use xlink:href="#DejaVuSans-Bold-6d" x="1646.337891"/>
    </g>
   </g>
  </g>
 </g>
</svg>
